<svg xmlns="http://www.w3.org/2000/svg" xml:space="preserve" id="Layer_1" x="0" y="0" version="1.1" viewBox="0 0 792 792"><style>.st11,.st4,.st5,.st6,.st7,.st8,.st9{fill-rule:evenodd;clip-rule:evenodd;fill:#fdf400}.st11,.st5,.st6,.st7,.st8,.st9{fill:#da251d}.st11,.st6,.st7,.st8,.st9{fill:#201b18}.st11,.st7,.st8,.st9{fill:#fefefe}.st11,.st8,.st9{fill:#1e1a17}.st11,.st9{fill:#221d1a}.st11{fill:#fdfcfc}</style><path d="M664.4 792H127.6C57.1 792 0 734.9 0 664.4V127.6C0 57.1 57.1 0 127.6 0h536.9C734.9 0 792 57.1 792 127.6v536.9c0 70.4-57.1 127.5-127.6 127.5" style="fill:#fff"/><g id="Layer_x0020_1"><g id="lombok_x0020_barat.cdr"><path d="M395 224.6c-4.2 2.3-10.2 7.1-14.2 10.2-3.8 2.8-10.1 8.1-14.3 9.6l11.2-34.8c-4.5-4-26.9-18.4-29.4-22.2l36.8-.1 10.2-32.3.2-6.4H150.4c0 136.6.2 272.9 0 409.1-.1 49.5 38.1 65.5 71.6 81.2l173.4 83.2v-54.6c-50.9-.5-91.2-14.3-133-37.2-7.2-4-29.4-17.5-34.7-22.3l6.7-12c-11.3-7.4-25.4-18.4-37.2-26.6-4.5-3.1-4.1-2.3-4.6-4.6 2.6-1.9 11.4-.9 14.9-1 5 0 10.2-.1 15.3-.1 0-1.5-5.9-14.8-7.7-22.8-3.2-14.6-1.8-10.2 29.2 11.2 5 3.5 9.6 6.8 15 10.5 8.9 6 7.2 6.2 7.8 17.7 18.4 10.4 34 19.3 56.6 27 22 7.5 46.4 12 71.7 12.4 0-9.6-6.3-4.9-8.8-21.4-1.3-8.6.8-21-2.8-27.6-8.4 5.2-7.2 26.4-21.7 30.1-4.7-17.6-3.5-24.3 1.8-40.1-14.3-4.2-23.7-7.8-35.6-14.7-11-6.3-21.4-14.5-29.1-22-8.1-7.8-15.2-17.4-22.3-28.7-7.1-11.2-10.3-22-15.1-35.9-13 4-21.2 4.9-35 .2 2.2-21.5 22.2-14.4 27.6-23.2-7.8-8.5-33.6 2.2-40-15.6 7.6-13.8 29.5-7.2 41.3-10.4-.9-5-10.2-8.8-14.7-11.2-5.1-2.7-10.7-6.8-11.7-13.8 9.3-5.2 24.1-1.6 32.6 1.2 5.8-13.4 3.9-16.1 14.8-34.6 8.9-15.1 21.4-29.6 35.2-40 19.9-14.8 27.1-16.5 50.5-25.1-2.5-11.4-4.6-22.8.1-34.8 13.4.9 13.5 25.4 22.1 29.2 3.4-12.2-.5-26.4 5.5-37.1 4.3-7.7 5.2-2 5.2-12 .2-2.5.5-5.8-.3-7.6" style="fill-rule:evenodd;clip-rule:evenodd;fill:#0074b8"/><path d="m397.5 153.6 10.8 33.8h36.8c-3.5 5-23.3 16.6-29.5 22.2l11.3 35c-6.8-2.4-21.7-16.7-29.5-20.5-.4 1.2-1.4 11.7 1.1 14.4 2.8 3.1 5.2 4 6.8 10.9 2.2 9.2-1.6 24.8 3.9 31.6 7.1-3.9 3.7-29.1 23-28.8 2 14.5 3 18.9-.4 33.3 14.9 4.9 24.7 7 37.5 14.2 22.5 12.5 40.1 29 53.6 51.3 10.1 16.5 9.6 20.2 15.8 36.5 14.9-4.1 17.9-2.8 32.8-.6-3.5 16.8-25.3 15.5-28.6 25.3 16.8 6.1 29-6 44.6 10.2-4.8 15.8-28.5 9-43.3 15.4 2.5 5.8 12.7 5.6 18.5 8.1 6 2.6 11 7.4 11.2 15.6-10.3 5-25.6 3.2-36 .4-3.5 20.6-24 51.3-39.5 64.9-39 34.1-62.3 31.8-68.6 36.1 5.4 15.3 4 21.7 1.9 37.9-21.6-1.9-14.5-25.8-23.4-29.4-5.6 12 .7 25.8-5.8 38.1-3.1 5.7-5.3 3.1-5.3 10.4 41.9-.1 87.1-12.7 122-34.1 4-2.4 10.6-7 14.1-8.4-.4-10.9.6-12.9 7.4-17.5l30-21.1c2.5-1.9 4.7-3.4 7.4-5.3 8.4-5.8 9-6 6.8 4-2.6 11.9-5.2 14.4-8.1 23.4 5.5 0 26.4-.7 30 .6.1 2.9 1.7.7-4.6 5.3-1.7 1.3-3.7 2.8-5.7 4.2l-35.1 25.1 7.1 12.8c-4.9 4.8-28.4 17.8-35.6 21.8-24.7 13.8-55.3 25.3-83.4 31.4-25.4 5.5-41.7 4-52.1 6v51.8l33.8-15.8c33.6-15.3 69-33 103.3-49.1 13.5-6.3 59.3-26.9 68.4-33 10.4-6.8 19.9-14.6 26.2-24.8 7.8-13 9.4-23.8 9.4-41.3V149.3l-241.1-.3z" style="fill-rule:evenodd;clip-rule:evenodd;fill:#0098dd"/><path d="M649.5 525.7c0 6.8.1 9.9.1 12.8.5 45.4.9 73.4-58.1 102.1-3 1.5-6.3 2.8-9.5 4.2-3.4 1.4-6.8 2.8-9.6 4.2-3.2 1.6-6.2 3.1-9.2 4.5-3.7 1.7-6.6 3.1-9.1 4.3-1 .4-3.4 1.5-7.6 3.5-9.6 4.4-19.6 8.9-28.8 13.7-9.6 5-20.3 9.9-30.6 14.5l-6.8 3.1-72.9 34.7c-1.3.6-2.4 1.2-3.4 1.7-3.7 1.9-5.6 2.8-8.6 2.9-1.5 0-2.7-.2-4-.6 2.1 1.1 4 1.9 5.3 2.4.1.1 14-7.1 20.6-10.4 1.4-.7 2.6-1.3 3.3-1.7 5.6-2.7 8.1-3.9 10.6-5 6.7-3.1 13.4-6.2 18.9-9.1l.2-.1 59.2-28 .1-.1c9.3-4.2 19.3-8.9 29.6-13.8 11.6-5.5 20.9-10 29.5-14.2 5.3-2.5 9.9-4.6 14.5-6.7 32-14.4 68.4-30.8 70-71.9.8-18.8.5-38.6.3-58.1-.1-10.7-.2-21.2-.2-28.1V95.4c0-2.7.1-7.5.2-12.7.2-8.1.4-16.8.1-23.9-39.2-.6-266.5-.2-356.1 0-27.8 0-23.3.1-35.2.1-19.7 0-30 .1-40.5.1-27.9.1-56.4.3-83.3-.1v510.8c0 5.6 2.1 13.4 5.3 21s7.3 14.7 11.3 19.2l11.2 10.4c4 3.1 11.1 7.2 19.9 11.9-14-8.1-25.8-17.6-33.8-31.7-4.2-7.3-7.1-14.1-9-21.5-1.9-7.3-2.7-15.2-2.7-24.8l-.2-486.6v-7.1h509.3v7.1l.1 78.9zm-14 12.9c-.1-5.3-.1-10.9-.1-12.9h.1l.1-379.3-.1-71.9h-481l.2 479.5c0 8.2.7 15 2.3 21.2s4 11.9 7.6 18.1c10.8 19 32 28.9 56.3 40.2 1.3.6 2.7 1.3 4 1.9 40.2 18.9 80.5 38.4 120.4 57.9 14.8 7.2 29.6 14.4 44.3 21.5 2 1 2.5 1.2 3 1.4 2 1 2.5 1.5 2.7 1.5.3 0 .7-.4 2.5-1.4 1-.5 2.2-1.1 3.7-1.8h.1l72.9-34.8h.1c2.1-.9 2.4-1.1 6.8-3.1 10-4.6 20.3-9.3 30-14.3 9.1-4.8 19.4-9.4 29.4-14 .9-.4 1.6-.8 7.5-3.5 3.7-1.7 6.7-3 9-4.2 3-1.4 6-2.9 9-4.4 3.7-1.9 7.1-3.3 10.6-4.7 2.9-1.2 5.8-2.4 8.7-3.9 50.6-24.5 50.3-49.2 49.9-89M317.4 695.7c-12.9-6.3-25.8-12.6-38.7-18.8.5.3.9.5 1.4.7 9.6 5.1 20.7 10.2 31.8 15.5 1.9.9 3.7 1.8 5.5 2.6m-193.1-126V53.6c0-7.5 4.1-9 9.7-9 .6 0 1.3 0 2.1.1.6.1 1.2.1 1.3.1 27.1.4 56 .3 84.2.1 17-.1 33.8-.1 40.5-.1h35.2c97.2-.2 356-.6 363.5.3l5.5.6.6 5.5c1.1 8.1.7 20.8.4 31.9-.1 4-.1 7.8-.1 12.4v391.3c0 11.5.1 19.7.1 27.9.3 19.8.5 39.8-.2 58.8-2 49.9-42.6 68.3-78.3 84.3-5.2 2.4-10.3 4.7-14.3 6.6-10.9 5.3-21.5 10.4-29.6 14.2-9.5 4.5-19.3 9.1-29.7 13.8l-59.2 28c-7.1 3.6-13.1 6.4-19.2 9.3-4.5 2.1-9.1 4.2-10.5 4.9-.6.3-1.7.9-3 1.5-8.4 4.2-26.2 13.1-31.8 11.1-3-1.1-6.8-3-10.3-4.8-2.2-1.2-4.2-2.2-5.1-2.6-3-1.4-5.3-2.6-7.5-3.7s-4.5-2.2-6.8-3.3c-6.6-3.1-5.8-2.7-6.2-2.9-7.9-3.7-16.1-7.6-23.3-11.2-8.6-4.3-17.6-8.6-26.5-12.7-11.5-5.3-23-10.7-32.4-15.7-8.7-4.6-22.8-11.2-38.2-18.4-30.5-14.3-66.4-31.2-78.3-40.6l-.4-.4-11.4-10.6-.4-.4c-5.4-5.7-10.6-14.6-14.4-23.8-3.5-9.2-6-19-6-26.4"/><path d="M642.5 525.7c0 50.3 6.2 79.1-54.1 108.6-6.2 3-13 5.3-19.2 8.5-6.2 3.1-12 5.8-18.1 8.7-12.1 5.5-25.1 11.3-36.6 17.3-11.9 6.1-24.8 11.9-37.1 17.5l-73 34.7c-10.4 5.1-7.6 5.3-18 .3-54.2-26.3-110.6-54-164.5-79.3-27.1-12.7-50.9-23-63.4-45.1-7.7-13.5-10.8-25-10.8-42.8l-.2-486.6h495.1l.1 78.9zM131.3 53.6v516.1c0 13.1 9.3 35.3 18.8 45.4l11.4 10.6c17.1 13.6 90 44.9 115.3 58.3 17.1 9.1 40 18.9 58.8 28.4 9.4 4.8 19.7 9.5 29.3 14 4.8 2.2 9.4 4.6 14.3 6.9 4.2 1.9 10.8 5.8 14.8 7.2 3.2 1.2 25.1-10.3 29.4-12.3 9.9-4.8 19.9-9.2 29.7-14.2l59.2-28.1c19.7-9 39.6-18.5 59.3-27.9 36.3-17.4 86.5-32.6 88.5-84.7 1.2-28 .1-58.2.1-86.5V95.4c0-12.1 1.2-32.3-.1-43.4-8.5-1.1-375.7-.1-397.9-.1-40.5 0-84.5.5-124.8-.1-3 0-6.1-.9-6.1 1.8" class="st4"/><path d="m172.8 86.6 2.8-.1h5.3v34.7l20.2.4v7.1h-28.4V86.6zm391.8 41.9-8.6.2c2.2-7.7 8.5-23.3 11.8-32.4 1.1-3.1 1.9-8.7 4.8-10.2h6.4c2.5.6 8.1 18.4 9 20.7 2.4 6.6 6.5 15.3 8.1 21.8h-8.9l-3.4-9.7-15.9.1zm-81.2.2h-8.6l15.5-42.5 8.7-.1 15.9 42.3c-9.6 1.2-8.9 0-10.5-4.5-2-6.1.1-4.8-16.1-4.8-3 0-4.1 7-4.9 9.6m-262-42.9c28.7-4.2 30.2 39.9 7.2 43.4-29.1 4.4-30.8-40.1-7.2-43.4m115.3 24.5c-2.1-32.7 36.9-32.1 38.7-5.6.9 13-4.6 23.2-16.3 24.6-13.4 1.5-21.6-6.6-22.4-19m205.5 0c5.5 3.8 10 11.9 13.2 18.4h-9.7c-1.5-3.2-4.8-8-6.8-10.9-2.7-4.3-4.2-7.6-11.4-6.6v17.5h-8.1V86.2c8.7 0 24.3-2.4 29.8 3.5 3 3.2 4 8.2 2.3 13-2 5.9-5 4.7-9.3 7.6m-217.8-4.2c3 2.4 6 3.5 6.7 8.5 2.3 18.1-21.2 14.3-33.6 14.2V86.3c6.5-.1 21.2-.9 26.1 1.4 5.5 2.7 9 10.7.8 18.4m140.6 0c3.2 2.4 6.2 3.4 6.8 8.7.6 4.6-1.6 9.2-4.4 11.4-4 3.3-22.6 3.2-29.2 2.3v-42c5.2-.7 22.5-.8 26.5 1.4 2.7 1.4 5.1 5 5.2 9 0 5-2.6 6.6-4.9 9.2m-206.9 22.6h-7.6V86.2l12.2.1c1.2 6.3 5.3 23 7.3 28.2l7.1-28 12.2-.1.1 42.2-7.6.4-.1-32.4-7.9 32.2c-9.7.3-7.3 2.7-11.6-15.7-.9-3.9-3.9-13.8-4.1-16.5zm335.5-39.6v-2.9l32 .1v6.8l-11.7.4-.1 35.1-8.1-.1-.1-35.1h-11.9v-4.3zm-191.1 13.1c1.6 4.2 5.2 9 7.6 13.2 2.4 4 6.3 9.4 8 13.2l-10.5-.1-10.7-19.5c-8.1 7.7-6.7 5-6.7 19.4l-8.1.2V86.3l8.1.1v17.9c2.7-1.4 2.7-2.4 4.5-4.6 1.7-2 2.7-3 4.3-5 7.5-9.5 7.3-9 18.1-8.4l-7.3 8c-2.9 3.2-3.8 4.8-7.3 7.9m-250.7 39.3v2.8h486.5V71.8H151.6z" class="st5"/><path d="M230.6 607.2 251 572c4.9 2.4 18.4 12.6 29.9 18.6 36.5 19.1 72 30.9 115.9 31.1 86.8.4 138.3-46.5 147.7-49.6l21 35.7c-3.5 3.8-28.1 17.8-34.8 21.3-88.6 46.1-177 50.2-265.3.4-6.4-3.5-11.7-6.7-17.8-10.6-2.8-1.8-5.6-3.5-8.6-5.5zm133.1-9.3c-3-13-3.3-26.9 3.2-37.7 5.2-8.6 14.3-16.8 29.2-17.1 36.4-.6 39 44.4 33.3 54.9-16.3-1.4-10.9-27.5-21.2-29-4.8.9-4.6 15.6-4.5 20.5 0 12.5-.6 16.2-6.8 23.4-13-4.7-6-36.7-10.9-43.1-7.2-9.4-11.2 24.1-22.3 28.1m-147.5-62.8 44.5 31c-.1 11.7-9.9 2.8-9.9 2.8-1.9 1.6-6.2 9.6-7.7 12.2-1.7 2.8-5.7 10.5-7.8 12.7-2.7-1.5-7.2-4.9-9.6-6.7l-28.6-21 29.3-.4c-.1-2.9-9.1-17.3-10.2-30.6m367.2-2.8c-.6 11.6-6.6 21-10.2 30.3l29.6.3c-6.7 6.3-35.5 25.2-42.6 31.2-4.1-4.8-13.8-23.5-15.6-24.6-2.4-1.4-4.5-.1-5.2-6.2zM571.7 460c-15.3 2.6-27 4.5-39.5-3.7-21.2-14-21-47.4-1.3-62.3 11.2-8.4 22.5-7.7 37.7-5.8-3.8 13-28 14.3-27.9 24.1 3.2 7.8 36.4-3.1 43.9 10.7-9 15.9-39.2 3.4-42.6 15.6 5.3 10.9 26.4 2.4 29.7 21.4M364.5 289.9c4 14.6 32.5 29.5 54.1 13.7 5.8-4.2 7.8-7.7 11.3-13.5l.9-1.4c11.4 1.7 28.9 8.9 37.4 14 13.7 8 11.9 7.3 22.6 15.6 18.3 14.1 40.7 46.9 44.6 70.9-5.5 1.5-12.2 8.8-15.1 13.4-10.2 16.3-7.8 39.7 6.8 52.4 2.6 2.3 5 3.2 7.7 5.5-2.7 15.1-16.3 39-26.4 50.6l-6.1 6.7c-8.6 8.6-9.6 10.4-20.7 18.3-12.2 8.8-39.7 22.5-53.6 22.8-3.8-4.6-6-8.7-11.8-12.2-5.1-3.2-11.1-5.5-18.7-5.7-15.3-.3-25.7 7.8-31.3 16.5-9.9-.7-28.3-9.8-35.9-14.2-11.7-6.8-20.1-13.5-28.6-21.7-14.8-14.4-33.8-43.1-36.8-64.3 18.4-8.8 24.9-43.7 7.3-62.9l-6.5-5.9c-.1-.2-.3-.2-.4-.4 4.6-24.5 24.2-50.9 36.3-62.7 14.6-14 41.6-32 62.9-35.5M256.6 435.7c-5.7-10.3-32.6.8-39.7-14.8 12.7-14.2 33.8-2.2 40.8-9.9 1.3-10.1-23.4-12-25.5-24.1 11.5-5.4 28.7 0 35.5 6.4 18.5 17.5 16.4 47.7-2.3 61.5-11.4 8.4-22.2 6-36.1 3.7 1.9-19 26.5-11.6 27.3-22.8M364 254.6c11.6 3.7 14.8 36 22.5 27.6 3.2-3.5 2.1-18.2 2.4-23.8.6-10.2 3.1-12.6 6.9-18.6 7.5 1.8 8.4 13.7 8.3 23 0 5-.1 19.2 4.8 20.2 7.8 1.7 6.7-27.7 20-28.3l1.5.3c14 50.1-42.9 70.5-62.8 36.9-7.4-12.5-5.9-22.8-3.6-37.3m33.4-30.6-1.2-.9-1.2 1.4c.8 1.8.5 5.1.6 7.7 0 9.9-.9 4.2-5.2 12-6 10.7-2.1 24.9-5.5 37.1-8.6-3.7-8.7-28.2-22.1-29.2-4.8 12-2.7 23.3-.1 34.8-23.3 8.6-30.6 10.3-50.5 25.1-13.8 10.4-26.4 24.8-35.2 40-10.9 18.5-9 21.2-14.8 34.6-8.5-2.8-23.3-6.4-32.6-1.2.9 7.1 6.6 11.2 11.7 13.8 4.5 2.4 13.8 6.2 14.7 11.2-11.8 3.2-33.7-3.3-41.3 10.4 6.3 17.8 32.1 7.1 40 15.6-5.5 8.8-25.4 1.7-27.6 23.2 13.8 4.7 22 3.8 35-.2 4.8 13.9 8 24.6 15.1 35.9s14.3 20.9 22.3 28.7c7.7 7.5 18.1 15.7 29.1 22 12 6.8 21.4 10.4 35.6 14.7-5.3 15.8-6.5 22.5-1.8 40.1 14.5-3.7 13.2-24.9 21.7-30.1 3.6 6.7 1.5 19 2.8 27.6 2.4 16.5 8.8 11.8 8.8 21.4-25.3-.4-49.7-4.9-71.7-12.4-22.6-7.7-38.2-16.6-56.6-27-.6-11.5 1-11.7-7.8-17.7-5.4-3.7-10-7.1-15-10.5-31-21.4-32.5-25.8-29.2-11.2 1.8 8 7.7 21.2 7.7 22.8-5.1 0-10.2.1-15.3.1-3.5.1-12.3-.9-14.9 1 .5 2.3.1 1.5 4.6 4.6 11.8 8.3 25.9 19.2 37.2 26.6l-6.7 12c5.3 4.8 27.5 18.4 34.7 22.3 41.8 22.8 82.1 36.6 133 37.2v54.6L222 638.9c-33.6-15.7-71.7-31.8-71.6-81.2.2-136.2 0-272.5 0-409.1h245.2l-.2 6.4.9-2.3 1.2.9-.4-5 241.1.3v406.6c0 17.5-1.5 28.4-9.4 41.3-6.3 10.2-15.8 18-26.2 24.8-9.1 6-54.9 26.7-68.4 33-34.3 16.1-69.7 33.8-103.3 49.1l-33.8 15.8v-51.8c10.4-2 26.7-.5 52.1-6 28.2-6.1 58.8-17.6 83.4-31.4 7.3-4 30.7-17.1 35.6-21.8l-7.1-12.8 35.1-25.1c2-1.4 4-3 5.7-4.2 6.3-4.5 4.8-2.4 4.6-5.3-3.5-1.3-24.5-.6-30-.6 3-9 5.5-11.5 8.1-23.4 2.2-10.1 1.5-9.8-6.8-4-2.7 1.9-4.9 3.5-7.4 5.3l-30 21.1c-6.8 4.6-7.8 6.6-7.4 17.5-3.5 1.4-10.2 6-14.1 8.4-34.8 21.5-80.1 34-122 34.1 0-7.3 2.2-4.7 5.3-10.4 6.6-12.2.2-26.1 5.8-38.1 8.9 3.5 1.8 27.4 23.4 29.4 2.1-16.2 3.5-22.7-1.9-37.9 6.3-4.2 29.7-2 68.6-36.1 15.5-13.5 36.1-44.3 39.5-64.9 10.4 2.7 25.7 4.5 36-.4-.1-8.1-5.2-13-11.2-15.6-5.8-2.5-16-2.3-18.5-8.1 14.8-6.4 38.5.4 43.3-15.4-15.6-16.3-27.8-4.1-44.6-10.2 3.2-9.8 25.1-8.5 28.6-25.3-14.9-2.2-17.9-3.5-32.8.6-6.1-16.3-5.7-20-15.8-36.5-13.5-22.2-31.1-38.7-53.6-51.3-12.8-7.2-22.6-9.3-37.5-14.2 3.4-14.3 2.4-18.8.4-33.3-19.3-.3-15.8 24.9-23 28.8-5.5-6.8-1.7-22.4-3.9-31.6-1.7-6.9-4-7.8-6.8-10.9-2.2-2.4-1.2-13-.8-14.1M151.6 71.8h486.6v72.5H151.8v-2.8zm491 74.6-.1-78.9H147.3l.2 486.6c0 17.8 3.1 29.3 10.8 42.8 12.5 22.1 36.4 32.4 63.4 45.1 53.9 25.3 110.3 53.1 164.5 79.3 10.4 5 7.6 4.8 18-.3l73-34.7c12.2-5.6 25.2-11.4 37.1-17.5 11.6-6 24.6-11.7 36.6-17.3 6.2-2.9 12-5.6 18.1-8.7 6.3-3.2 13-5.5 19.2-8.5 60.3-29.4 54.1-58.2 54.1-108.6z" class="st6"/><path d="M391.5 311.8c64.6-5.5 116.5 43.1 121.4 101.2 5.4 64.5-43.9 115.1-102.1 120.1-64.8 5.6-116.4-43.1-121.4-101.4-5.4-64.3 44-114.8 102.1-119.9m-27-21.9c-21.3 3.5-48.4 21.5-63 35.6-12.1 11.8-31.7 38.2-36.3 62.7.1.1.4.1.4.4l6.5 5.9c17.6 19.2 11.2 54.1-7.3 62.9 3 21.2 22 49.9 36.8 64.3 8.5 8.1 16.8 14.9 28.6 21.7 7.6 4.4 26 13.5 35.9 14.2 5.6-8.7 16.1-16.8 31.3-16.5 7.6.2 13.6 2.5 18.7 5.7 5.8 3.5 8 7.6 11.8 12.2 14-.4 41.5-14 53.6-22.8 11-7.9 12.1-9.7 20.7-18.3l6.1-6.7c10.2-11.7 23.8-35.5 26.4-50.6-2.7-2.3-5.1-3.2-7.7-5.5-14.6-12.7-17-36.1-6.8-52.4 2.9-4.6 9.6-11.9 15.1-13.4-3.9-24-26.3-56.8-44.6-70.9-10.7-8.3-8.9-7.6-22.6-15.6-8.6-5-26.1-12.2-37.4-14l-.9 1.4c-3.5 5.8-5.5 9.3-11.3 13.5-21.4 15.8-50 .9-54-13.8" class="st4"/><path d="M335.2 508c3.5-3.3 5.9-6.6 8.9-9.9-4.2-5-9-7.3-16-17.8-29.5-44.5-6.2-111.5 53.3-126 4.5-1.2 7.5-4.2 10.1-6.9 1.7-1.6 3-2.3 4.7-3.9 2.2-2 2.4-2.7 4.9-4.4 5.3 3.3 12.8 14 17.9 15.6 9.9 3.1 16.2 4.7 24.4 9.6 41.3 25.5 53.3 76 27.7 114.4-2.7 4-4.7 6.3-7.4 9.6-3 3.7-5.3 5.3-8.5 8.3 2.8 4.4 6.9 7.3 9.9 12l-3.2 3c7.5-3.2 17.8-14.2 23.3-20.3 23-25.6 30.7-65.7 20.1-101-11.8-39.1-49.8-73.6-99.3-75.7-53.2-2.2-91.4 31.5-106.1 68-14 34.7-8.4 73.7 13.2 103.4 4 5.5 16.7 19.7 22.1 22M377.4 631.4l5 .3 7.3 25.9-4.8-.3-1.8-6-9.1-.3-2 5.3-5-.4zm-23.3-3.2c7.2.9 15.9.9 16.4 8.1.6 9.6-6.5 9.1-14.3 8.2-.2 1.6-.4 3.3-.6 5l-1.4 4.2-3.9-.9zm64.6 29.1c-12 1.1-10.8-14.9-11.6-24.6l3.9-.4c3.7 4.8-1.3 20.8 7.1 20.7 7-.1 3.5-11.2 2.7-21.7l4.4-.4c.9 4.4 1.7 12.3 1.8 16.8.2 6.6-2.1 9.1-8.3 9.6m-19.4-20.8.3 21.1-4.6-.3-.6-20.7-6.7-.2.3-4 18-.4.1 4.3zm84.7-20.8c2.9 1.4 7.1 7.5 9.3 9.9s6 8 8.4 9.8c-1.3 1.5-2.4 1.7-4.2 2.2-1.9-1.6-2.7-3-4.3-4.4l-8.4 3-.2 6.3-4.3 1.3.1-26.7zm-46.7 39.1-4.5.6-4.8-24.8 4.6-.4 1.7 9.4 9.1-1.6-1.7-10 4.4-.5c1 4.2 1.7 8.2 2.4 12.4 1.2 6 2.6 9.3 1.5 12.4l-3.7.6-2.1-10.8-8.8 2.1zm20.3-29.8c5.5-3.2 15-5.5 18.1.6 4.2 8.3-3 11.6-9.6 12.8l2.5 9.5-4.3 1zm-111.7 2.1-.9 3.6-6.8-1.6-6.2 19.7-4.3-1.1 6-20.2-6.3-2.1 1.2-4c4.1 1 14.6 3.6 17.3 5.7m-19.4-5.7c-4 12.3-7.1 24.3-17.4 20.4-6.1-2.3-7.3-6-4.9-13 1.4-4.1 3.7-10.7 5.6-14.3l3.9 2c-1.9 6.4-12.4 23.3 1.1 21.2 3.1-4.4 5.1-12.5 7.7-18.3 2 .7 2.7.7 4 2m-34.7 12.8-4.1-2.3 8.5-18.3-3-2c-1.4-.8-1.4-.6-2.7-1.7l1.5-3.6 16.5 8-1.5 3.7-6.5-2.5zm198.8-20.5c1.7-1.4 14.3-7 16.7-7.3l1.3 3c-1.7 2.1-3.5 1.8-5.9 3.7l8.2 19-4.2 1.6-8.6-18.9-6.3 2.4zm-208.7-12.1c2.5.6 3.5 1.2 4.8 2.9l-3.1 19.9c-.1.9-.3 2.3-.5 3l-1.1 2.7-3.6-1.8.7-6.3-7.8-4.3-4.2 3.9-4.5-1.9zm236.3 18c2.6 2.2 1.8 3.2 5.8 2.1 1.2-5.4-6.7-14.4-8.4-20.3l3.8-1.4c1.6 1.9 9.1 15.8 9.4 18.7.7 6.8-8.3 12.7-13.8 3.5zm-269.9-9c1.9-3.5 4.2-7.1 6.5-10.8l6.7-10.4c6.3 3 13.5 6.8 11.7 13.2-3.2 11.7-15.2 3-16 2.7-1.7 1.4-4.1 5.8-4.8 7.7-2.4-.8-2.6-.7-4.1-2.4m290.3 1.8c3.2-.1 3.7-.9 5.5-2.7-.1-5.3-6.8-13.9-9-18.7l4.2-2.1c3.1 7.4 16.1 20.4 4.7 26.7-7.2 4-10.1.4-13-4.2-2.2-3.4-5.9-9.5-7.6-13.5l3.9-1.9c3.3 4.8 6.9 14.1 11.3 16.4m-299.6 1c3 2.1 5.8 3.7 8.6 5.5 6 3.9 11.4 7.1 17.8 10.6 88.3 49.8 176.8 45.7 265.3-.4 6.7-3.5 31.2-17.5 34.8-21.3l-21-35.7c-9.4 3.1-60.9 50-147.7 49.6-43.9-.2-79.4-12-115.9-31.1-11.4-6-25-16.1-29.9-18.6l-20.4 35.2z" class="st7"/><path d="m348.1 479.7 3.2-3.7c1.2 2.4 2.5 5 4.4 6.8 3.4-2.2 4.5-4.9 7.3-7.1 3 2.6 4.3 5 6.9 7.3 2.9-2.2 3.4-4.5 6.3-6.8 2.4 2.2 4 5 6.3 6.8 2.5-2.5 3.9-4.5 6.4-6.7l5.3 6.8c.1.1.2.3.4.4 1.7-2 5-6 6.8-7.7 2.6 2.4 4.7 5.4 7.1 8.1 1.9-2.9 4.8-6.1 7.3-7.9 2.5 1.4 4.3 4.9 7.7 8 2.7-4 5.1-5.3 6.9-7.3 1.4 1.6 4.8 5.7 6.7 7.1 3.7-2.4 4.2-4.5 7.1-6.8.1.1.4.1.4.4l4.3 6.1c-3.3 3.4-10.9 10.5-16.1 10.5h-65.2c-6.4-.3-17.1-11-19.5-14.3m54.3-7.7c1.1-.6-.8-1.7 1.6.4 2 1.8 4.6 4.8 5 7.3l-2-1.7c-1-1.1-1.2-1.3-1.9-2.3-.7-.7-2.6-3.7-2.7-3.7m-56.7 4.9c-.1-.1-.1-.4-.1-.4s-.1-.3-.1-.4l3-3.8c2.1-1.8 1.1-.6 1.5-.5.8.6 2-1.2-1.1 3.1-3.7 5.1-3.2 2-3.2 2m-10-19.6c2.6 1.1 3.5 3.6 5.3 6.5 2.2-1.9 5.3-5.3 7.6-7.4 2.2 2.2 4.5 5.3 7.1 7.5 1.4-1.9 4.2-5.8 6.7-7.3 1.3 2.7 3.7 5.1 5.5 7.3 2.3-1.7 4.4-4.8 6.3-6.9 2.4 1.7 4.2 4.9 5.7 7 2.8-1.8 4.9-5.4 7.3-7.6l6.9 8c3.9-5.2 3.4-2.9 4.8-1.9l2.4-6.2c2.9 1.7 5 6.1 7.8 7.9 2.4-1.5 4.1-4.8 7.1-6.7 2.5 1.6 4.5 5.1 7 7.1 2.2-3.1 4.5-4.6 7-7.4 1.6 2.4 4 6 6 7.5 1.5-1.7 5-5.6 6.2-7.8 1.5 1.1.7.4 1.9 1.8l4.7 6.6c2.3-2.1 5.8-6.3 7.9-8.7 5.7 9.8 6 8.5 3.7 12.8-1-1-1.1-1.4-2.3-2.2-2.7 3.3-4.8 6.1-8 8.8l-6.3-8.4c-1.7 2.4-4.2 5.5-6.6 7.7-2.2-1.4-3.6-4.4-5.5-6.9l-7.2 7c-2.9-1.2-4.5-4.4-7.1-6.8-1.9 1.6-5.1 4.7-7.1 6.8l-7.3-8.4c-2.6 2.9-5.2 5.8-7.6 8.2-2.4-2.3-4.8-5.4-7.1-7.8l-5.8 6.5c-1.1.9-.1.3-1.3.9l-5.4-6.9c-2 1.4-2.1 2.1-3.5 3.7-1.4 1.7-1.8 2.2-3.2 3.2l-6.3-7.1c-1.4 1.2-4.8 5.4-5.7 7.2-2.9-1.6-5.8-5-7.2-7.1l-6.3 6.1c-2.4-1.9-9.6-13-8.1-16.6m-4.7-25.1c4.6 2.2 10.4 9.1 22.7 9.7 11.4.6 17.7-4.5 26.9-5.5 1.1 1.2 15 21 14.4 23.6-2-.5-1.4-.3-2.6-1.4-.5-.4-1.3-1.6-1.9-2.4-1.2-1.4-2-2.5-3.3-4l-6.8 8-5.9-7.5-4.6 5.5c-.1.1-.6.6-.8.7-1.3 1.1.3.1-1.6 1.1-1.4-2.5-3.7-5.6-6-7.3-1.7 2.3-4 4.5-5.5 7.1-3.2-1.4-4.8-4.8-7.3-7.1l-6.8 6.7c-2.4-2.5-2.9-3.9-4.6-6.8-2.2 1.3-1.4 1.4-3.4 2.8-2-8.2-3.4-13.8-2.9-23.2m.6-2.9c15.8-3.7 27.1-16.3 44.9-5.3l.6 1.7c.7 2.9.7 4.9 2.4 8.1-15.4 7.5-36.5 9.2-47.9-4.5m65.9 26.2-15.3-23c-7.6-15.9 9-19.5 14.5-8.1 4.1-1.7 7.2-6.1 12.9-6.6 7.7-.6 5.2 9.1 3.1 13.2-3.3 6.5-8 11.4-13.2 21.6 0 .1-.6 1.3-.7 1.4zm20.2-27.8.2-7.6c22.3-4.4 26.8 3.4 45.6 7.9-4 4.4-13.7 8.9-21.7 10.2-9.3 1.4-19.2-1.4-27.1-3.9l2.5-5.7c13.2 5.8 17.7-2.7 30.5 2.7-2.3-8.5-20.3-2.4-30-3.6m31.7-6.9c2.2-2 5.8-3.6 8-5.4.9-.6 6-5.7 6.6-6.3 6 11.7 7.2 27.9 4.1 41.2-2 8.8-2 6.5-5 11.2-.1-.1-.4-.6-.4-.4-.1.1-.4-.4-.4-.4-.6-.8-.4-.4-1-1.4-.5-.8-.9-1.6-1.2-2.3l-2.9-4.5c-2.8 2.4-5.2 6-8 8.5-2.2-2.3-4.4-5.6-6.3-8.1-2.9 2.3-4 4.9-7 7.6-1.7-1.3-4.2-5.3-5.7-7.2-2 2.1-4.8 5.9-8 7.6-1.2-2.2-4.2-5.7-6.2-7.2-2.5 2.1-4.5 5.1-7.1 6.9-2.6-2.7-4.2-4.4-6.2-7.1 1.5-3.2 2.8-5.5 4.8-8.4 1.7-2.4 4.5-6.1 5.4-8.7 12.5 1.7 24.9 9.5 43.7-1 2.2-1.2 4-2.3 5.8-3.5 2.3-1.5 3.7-1.9 4.4-4.5-2.2-2.2-12-3-17.4-6.6M331.6 427c.3-5 2.4-14.1 5-17.5 1.9 1.7 2.7 4 4.5 6 1.7 2 3.2 3.7 5.6 5-2 2.4-12.4 6-15.1 6.5m53.1-16.3 3.4 3.5-3.5.6zm47.6 5.6c4.2-1.9 12.2-4.9 17.5-3.6-.4-1.5-.8-1.9-2.7-2.4-5.4-1.4-12 3-18.9 4.2-.4.1-1.8.3-2.2.4-1.5.6-6.6 4.4-9.8 2.2 0-2.1 0-1.5 2.7-4.1 13.8-13.1 25.6-6.8 43.1-5.6-1.8 3.4-7.2 7.6-11.6 10.2-5.7 3.3-11 .1-18.1-1.3m-94.1-9.5c13.2.9 30.9-3.9 38.9 14.8L362 416c-4.3-2.4-9.7-7.2-14.5-2.5 6.8.2 7.8 1.4 12.3 4.2-3 .5-5 1-7.6 1.7-6.2 1.7-11.5-7.7-14-12.6m30-30.5c-.4 17.1-2.4 26.3 9.7 38.6 1.9 1.9 2.3 1.6 1 4.4-3.5-2.8-4.5-8.9-14-12.7-7.7-3.1-17.4-1.6-26-1.9 3.7-9.7 19.1-24.9 29.3-28.4m39.5 38.6c-6.8-20.4 9.1-31.5 13.1-41.8 4.3 4.2 8.6 25.6-2.8 37.7-6.2 6.6-1.9 2.6-10.3 4.1m-24.8.5c-3.4.3-9.5-9.1-11.3-14-2.7-7.5-1.6-16.1-1.2-24.1 9.6 1.9 7.9 15 8.7 22.2-2.6-3.6-1.7-6-3.2-8.9-3 5 .2 9 2.4 12.7 1.2 1.9 4.8 7.6 5 9.9.3 3.5.4-2.7-.1 1.2 0 .1-.1.4-.1.6-.1 0-.1.2-.2.4m15.2 4.1c-5.3-2.6-13-10.7-15.8-17.5-3.2-8.2-2.2-20.5-2-30 3.6 1.4 6.6 4.8 9.1 7.3 8.6 8.9-1.3 10.3 5.5 26.4 3.3 7.7 3 3.6 3.2 13.8m4.5-8.6c1.7.4.4.4 1.7-1.4.4 2.4 1.3 4.5.3 6.4-2.2-1-1.9-1.4-3.5-3.7-9.6-13.9-6.6-22-3.8-38.4l1-3.2c18.8 21.2 8.3 11.5 5.8 32.2 0-4.2-3.8-7.1-2.5-17.2-7.2 5.9.8 12.9 1 25.3m-30.9-36.2c1.7-1.5 4.2-2.4 6.4-2.5l.2 8.3zm51.9-2.3c14.5 4 34.2 20.7 38.4 32.8-14.3-.1-24.7-6.1-38.1 1.1 1.4-6 4-8.1 3.7-16.7-.1-6.3-2-11.8-4-17.2m-29.8 8.5c-2.2-2-2.7-3.3-5-5.3-1.8-1.6-4.1-3.2-5.9-4.9 7.6-2.9 9.6-4.6 16.6-11.6 3.6 1.4 5.3 4.8 8.1 7.6 4.7 4.5 6.4 1.7 11.7 4.5-.5 2.5-2.3 4.7-3.7 6.8-.6.9-1.3 1.9-1.9 3-.9 1.4-.2.5-1.2 1.7-.1.1-.2.3-.4.4l-.8.8c-.1.1-.3.2-.4.4-3.6-9.9-12-15-15-18.3-1 5.4-.3 9.3-2.1 14.9m5.9-27.4c-2.2 2.3-12.3 11.4-15.3 12.3-2.3.7-4.9 1.2-7.3 1.9-24.8 7.9-45.9 29.5-50 59.3-3 21.7 4.6 39.5 17.1 55 2.5 3.1 15.2 15.1 20.9 15.9 4.8.6 69.8.6 72.3-.4 6.3-2.5 15.5-11.7 19.7-16.4 25.6-28.8 22.4-74.3-10.7-101.2-18.5-15-29.3-10.5-37.3-18-2.2-2-7.2-7.2-9.4-8.4" class="st6"/><path d="M352.7 519.4c2.4-3.7 8-9.4 11.5-12.7 2.1-1.9 1.9-3.2 4.9-3.7l64.9.3c2.5.9 14.1 12.5 17.1 15-27.8 13.2-57.5 16.4-87.3 5.6-3.7-1.4-7.8-3.6-11.1-4.5m-2.4-22c-4.4-4.5-10-7.4-16.8-16.8-16.8-23.4-17.6-52-6.2-77.5 9.9-22.2 31.3-39.5 54.6-44.6 9.6-2.1 12-9.3 19.1-13.6 2.9 1.4 6.4 5.1 8.6 7.8 8.9 10.7 9.1 2.4 32.8 16.1 29.6 17.1 45.4 55.9 33.8 89.7-4.5 13-16.6 32-27.4 37.2l9.9 12.1c-1.4 1.4-5.3 4.2-7.4 5.1-1.7-1.7-4.5-4.5-6.6-6.1-10.2-8.1-4.7-8.1-17.6-8.1l-62 .1-14.6 15.7c-3-1.6-7.6-4.6-9.1-7.3 3.6-3.4 5.9-5.8 8.9-9.8M335.2 508c-5.3-2.3-18.1-16.6-22-22-21.7-29.7-27.2-68.7-13.2-103.4 14.7-36.5 52.8-70.2 106.1-68 49.5 2.1 87.5 36.6 99.3 75.7 10.6 35.3 2.9 75.4-20.1 101-5.5 6.1-15.8 17.1-23.3 20.3l3.2-3c-3-4.8-7.1-7.6-9.9-12 3.2-3 5.5-4.5 8.5-8.3 2.7-3.3 4.7-5.6 7.4-9.6 25.6-38.4 13.6-88.9-27.7-114.4-8.2-5-14.5-6.6-24.4-9.6-5.1-1.5-12.7-12.2-17.9-15.6-2.5 1.7-2.7 2.4-4.9 4.4-1.7 1.6-3 2.3-4.7 3.9-2.6 2.7-5.5 5.8-10.1 6.9-59.5 14.5-82.8 81.5-53.3 126 7 10.5 11.8 12.7 16 17.8-3.1 3.3-5.5 6.6-9 9.9m56.3-196.2c-58.2 5-107.6 55.6-102.1 119.9 5 58.3 56.5 107 121.4 101.4 58.2-5 107.5-55.6 102.1-120.1-4.9-58-56.8-106.7-121.4-101.2" class="st8"/><path d="M399.7 353.5c2.2 1.2 7.3 6.3 9.4 8.3 8 7.5 18.8 3 37.3 18 33.1 26.9 36.4 72.4 10.7 101.2-4.2 4.8-13.5 13.9-19.7 16.4-2.5 1.1-67.5 1.1-72.3.4-5.7-.8-18.4-12.8-20.9-15.9-12.5-15.5-20-33.3-17.1-55 4-29.7 25.1-51.3 50-59.3 2.4-.7 5-1.2 7.3-1.9 3-.8 13-9.9 15.3-12.2m-49.4 143.9c-3 4-5.3 6.4-8.7 9.8 1.6 2.7 6.2 5.7 9.1 7.3l14.6-15.7 62-.1c12.9-.1 7.4-.1 17.6 8.1 2 1.6 4.9 4.4 6.6 6.1 2.1-.9 6-3.7 7.4-5.1l-9.9-12.1c10.7-5.2 22.9-24.2 27.4-37.2 11.6-33.8-4.2-72.6-33.8-89.7-23.8-13.8-23.9-5.4-32.8-16.1-2.2-2.7-5.8-6.4-8.6-7.8-7.1 4.3-9.4 11.5-19.1 13.6-23.3 5-44.7 22.3-54.6 44.6-11.4 25.6-10.7 54.1 6.2 77.5 6.6 9.4 12.2 12.2 16.6 16.8" class="st7"/><path d="m395.4 154.9-10.2 32.3-36.8.1c2.5 3.7 24.9 18.2 29.4 22.2l-11.2 34.8c4.2-1.5 10.4-6.8 14.3-9.6 4-3.1 10-7.8 14.2-10.2l1.2-1.4 1.2.9c7.8 3.8 22.7 18.1 29.5 20.5l-11.3-35c6.2-5.5 26.1-17.2 29.5-22.2h-36.8l-10.8-33.8-1.2-.9zM571.7 460c-3.2-19-24.4-10.5-29.6-21.5 3.4-12.2 33.6.3 42.6-15.6-7.6-13.8-40.8-2.9-43.9-10.7-.1-9.9 24-11.2 27.9-24.1-15.3-1.9-26.5-2.6-37.7 5.8-19.7 14.8-19.9 48.2 1.3 62.3 12.4 8.3 24.1 6.4 39.4 3.8M363.7 597.9c11.2-4 15.1-37.4 22.3-28.1 4.9 6.4-2.1 38.4 10.9 43.1 6.2-7.2 6.8-10.9 6.8-23.4-.1-5-.2-19.6 4.5-20.5 10.3 1.5 5 27.6 21.2 29 5.7-10.4 3.1-55.5-33.3-54.9-14.9.2-24 8.4-29.2 17.1-6.5 10.8-6.2 24.7-3.2 37.7M232.3 386.8c2.1 12.2 26.8 14 25.5 24.1-7.1 7.8-28.2-4.2-40.8 9.9 7.1 15.6 34 4.5 39.7 14.8-.8 11.2-25.4 3.8-27.3 22.7 14 2.3 24.8 4.7 36.1-3.7 18.7-13.8 20.8-44 2.3-61.5-6.9-6.3-24-11.7-35.5-6.3" class="st4"/><path d="M364 254.6c-2.3 14.5-3.7 24.8 3.7 37.3 19.9 33.6 76.8 13.2 62.8-36.9l-1.5-.3c-13.3.6-12.2 30-20 28.3-4.9-1-4.8-15.2-4.8-20.2.1-9.3-.8-21.2-8.3-23-3.8 6-6.3 8.5-6.9 18.6-.4 5.6.8 20.3-2.4 23.8-7.8 8.4-11-23.9-22.6-27.6" class="st4"/><path d="M352.7 519.4c3.3.9 7.3 3.1 11.2 4.5 29.9 10.8 59.5 7.6 87.3-5.6-3-2.6-14.6-14.1-17.1-15l-64.9-.3c-3 .4-2.8 1.7-4.9 3.7-3.6 3.3-9.1 9-11.6 12.7M539.4 563.3c.6 6.1 2.7 4.8 5.2 6.2 1.8 1.1 11.4 19.8 15.6 24.6 7.1-6 35.9-25 42.6-31.2l-29.6-.3c3.7-9.3 9.6-18.7 10.2-30.3zM430.1 453.2c1.5 1.9 4 5.9 5.7 7.2 3-2.7 4.1-5.3 7-7.6 1.9 2.4 4 5.8 6.3 8.1 2.8-2.5 5.2-6.1 8-8.5l2.9 4.5c.4.7.7 1.5 1.2 2.3.6 1 .4.6 1 1.4.1.1.4.6.4.4.1-.1.3.3.4.4 3-4.8 3-2.4 5-11.2 3.1-13.2 1.9-29.5-4.1-41.2-.5.6-5.6 5.7-6.6 6.3-2.2 1.8-5.8 3.4-8 5.4 5.5 3.6 15.3 4.4 17.4 6.4-.6 2.6-2.1 3-4.4 4.5-1.8 1.2-3.5 2.3-5.8 3.5-18.8 10.5-31.2 2.7-43.7 1-.9 2.6-3.7 6.3-5.4 8.7-2 3-3.3 5.3-4.8 8.4 1.9 2.7 3.6 4.4 6.2 7.1 2.6-1.8 4.5-4.8 7.1-6.9 1.9 1.5 5 5 6.2 7.2 3.3-1.5 6-5.3 8-7.4M260.7 566.1l-44.5-31c1.1 13.3 10.1 27.7 10.1 30.6l-29.3.4 28.6 21c2.4 1.8 6.9 5.2 9.6 6.7 2.2-2.2 6.2-9.9 7.8-12.7 1.5-2.6 5.8-10.6 7.7-12.2.1 0 9.9 8.9 10-2.8" class="st7"/><path d="M429.9 457.2c-2.4 2.8-4.8 4.3-7 7.4-2.4-2-4.5-5.5-7-7.1-3 1.9-4.6 5.2-7.1 6.7-2.8-1.8-4.9-6.2-7.8-7.9l-2.4 6.2c-1.4-.9-.9-3.2-4.8 1.9l-6.9-8c-2.4 2.2-4.5 5.8-7.3 7.6-1.5-2.1-3.2-5.3-5.7-7-1.9 2.1-4 5.3-6.3 6.9-1.8-2.2-4.2-4.6-5.5-7.3-2.5 1.4-5.3 5.4-6.7 7.3-2.6-2.2-4.9-5.3-7.1-7.5-2.2 2.1-5.3 5.5-7.6 7.4-1.8-2.9-2.7-5.4-5.3-6.5-1.4 3.5 5.8 14.7 8 16.5l6.3-6.1c1.4 2.1 4.3 5.5 7.2 7.1.9-1.8 4.2-6 5.7-7.2l6.3 7.1c1.4-.9 1.8-1.4 3.2-3.2 1.4-1.6 1.4-2.3 3.5-3.7l5.4 6.9c1.2-.6.2 0 1.3-.9l5.8-6.5c2.2 2.4 4.6 5.5 7.1 7.8 2.4-2.4 5-5.3 7.6-8.2l7.3 8.4c2-2.1 5.2-5.2 7.1-6.8 2.6 2.4 4.2 5.5 7.1 6.8l7.2-7c1.9 2.5 3.3 5.5 5.5 6.9 2.3-2.2 4.8-5.3 6.6-7.7l6.3 8.4c3.2-2.7 5.3-5.5 8-8.8 1.2.8 1.3 1.2 2.3 2.2 2.2-4.3 1.9-3-3.7-12.8-2.2 2.4-5.6 6.6-7.9 8.7l-4.7-6.6c-1.2-1.4-.4-.7-1.9-1.8-1.2 2.2-4.7 6-6.2 7.8-1.9-1.4-4.3-5-5.9-7.4M444.3 476.7c-2.9 2.2-3.4 4.4-7.1 6.8-1.9-1.4-5.3-5.5-6.7-7.1-1.8 2.1-4.2 3.4-6.9 7.3-3.4-3.1-5.2-6.6-7.7-8-2.4 1.8-5.4 5-7.3 7.9-2.4-2.7-4.5-5.7-7.1-8.1-1.9 1.7-5.2 5.7-6.8 7.7l-.4-.4-5.3-6.8c-2.5 2.2-3.9 4.2-6.4 6.7-2.4-1.7-3.9-4.5-6.3-6.8-3 2.3-3.5 4.6-6.3 6.8-2.6-2.2-3.9-4.7-6.9-7.3-2.9 2.2-4 4.9-7.3 7.1-1.9-1.8-3.2-4.4-4.4-6.8l-3.2 3.7c2.4 3.3 13.1 14 19.7 14H433c5.1 0 12.7-7.1 16.1-10.5l-4.3-6.1c-.1 0-.3 0-.5-.1M258.3 96.4c.2 2.7 3.2 12.6 4.1 16.5 4.2 18.4 1.9 16 11.6 15.7l7.9-32.2.1 32.4 7.6-.4-.1-42.2-12.2.1-7.1 28c-2.1-5.1-6.1-21.8-7.3-28.2l-12.2-.1v42.6h7.6zM305.7 121.2v-10.7c5.8-1.4 17.1-1.6 17.1 5.4 0 7.2-11.2 6.5-17.1 5.3m0-27.6c21.5-4.5 21 13.2 0 9.2zm18.7 12.5c8.2-7.7 4.7-15.7-.7-18.4-4.9-2.4-19.7-1.5-26.1-1.4v42.5c12.3.1 35.9 4 33.6-14.2-.7-5-3.8-6.2-6.8-8.5M446.4 121.6l-.1-11.4c6.3 0 17.1-1.7 17.1 5.8s-10.7 5.6-17 5.6m-.1-28.3h3.7c4.9 0 14.3-1 11.7 6.6-1.5 4.4-10.1 3.2-15.3 3.2l-.1-2.7zm18.7 12.8c2.3-2.6 4.9-4.2 4.9-9.2-.1-4-2.5-7.6-5.2-9-4-2.2-21.3-2.1-26.5-1.4v42c6.6.9 25.2 1 29.2-2.3 2.8-2.2 5-6.8 4.4-11.4-.6-5.4-3.7-6.4-6.8-8.7" class="st7"/><path d="M387.1 452.2c1.3 1.5 2.1 2.6 3.3 4 .6.8 1.4 1.9 1.9 2.4 1.2 1.2.6.9 2.6 1.4.6-2.7-13.3-22.4-14.4-23.6-9.1 1-15.4 6-26.9 5.5-12.3-.6-18.1-7.5-22.7-9.7-.5 9.4.9 15 2.8 23.4 1.9-1.4 1.2-1.5 3.4-2.8 1.7 2.9 2.2 4.2 4.6 6.8l6.8-6.7c2.4 2.2 4 5.6 7.3 7.1 1.5-2.7 3.7-4.8 5.5-7.1 2.4 1.7 4.7 4.8 6 7.3 1.9-1 .3 0 1.6-1.1.1-.1.6-.6.8-.7l4.6-5.5 5.9 7.5zM527.8 93.4c6.9 0 10.9-1.1 15.8 2.5 1.4 10.7-6.8 8.3-16 8.3zm14.4 16.9c4.2-3 7.3-1.7 9.3-7.6 1.7-4.8.6-9.8-2.3-13-5.5-6-21.1-3.5-29.8-3.5v42.6h8.1v-17.5c7.1-1.1 8.6 2.2 11.4 6.6 1.9 3 5.3 7.8 6.8 10.9h9.7c-3.2-6.6-7.7-14.7-13.2-18.5M213.9 111c-2.7-22.5 19.9-23.8 21.9-7 2.5 22.4-19.9 23.3-21.9 7m7.5-25.2c-23.6 3.4-21.9 47.9 7.2 43.4 23-3.6 21.5-47.6-7.2-43.4M345.2 111c-2.8-22.5 19.8-23.6 21.7-7.1 2.7 22.8-19.8 23.2-21.7 7.1m-8.5-.7c.8 12.4 9.1 20.5 22.5 18.9 11.7-1.4 17.1-11.5 16.3-24.6-1.9-26.4-40.9-27-38.8 5.7M402.5 102.2c3.5-3.2 4.5-4.8 7.4-7.9l7.3-8c-10.8-.6-10.7-1.1-18.1 8.4-1.6 2-2.6 3-4.3 5-1.9 2.2-1.8 3.2-4.5 4.6V86.4l-8.1-.1v42.3l8.1-.2c0-14.4-1.4-11.7 6.7-19.4l10.7 19.6 10.5.1c-1.7-3.9-5.6-9.2-8-13.2-2.5-4.3-6.1-9.1-7.7-13.3M575.5 96.6c1.2 1.5 1.1 1.7 1.9 4l3.7 11.3-10.7-.1zm-7.5 22.5 15.9-.1 3.4 9.7h8.9c-1.7-6.5-5.7-15.3-8.1-21.8-.9-2.4-6.5-20.2-9-20.7h-6.4c-2.8 1.4-3.7 7.1-4.8 10.2-3.3 9.1-9.6 24.7-11.8 32.4l8.6-.2zM489.3 111.9c1-4.1 3.2-12.2 5.5-14.9l5 14.9zm-5.9 16.8c.8-2.7 1.9-9.6 4.9-9.6 16.3 0 14.1-1.3 16.1 4.8 1.6 4.5.9 5.8 10.5 4.5L499 86.2l-8.7.1-15.5 42.5h8.6zM397.4 440.5c-.8-1-3.3-4.5-3.8-5.9-1.9-5.8 2.2-3.8 3.5-3.7h.4l1.4-.4c.5-.1-.6-.9 1.3-.1 3.3 1.7-1.5 6.6-2.8 10.1m1.4 13.5c.1-.1.7-1.3.7-1.4 5.2-10.2 9.9-15.1 13.2-21.6 2.1-4.1 4.6-13.8-3.1-13.2-5.7.4-8.8 4.8-12.9 6.6-5.5-11.4-22-7.8-14.5 8.1l15.3 23zM423.6 372.4c1.9 5.4 3.8 10.9 4 17.2.3 8.6-2.3 10.7-3.7 16.7 13.4-7.2 23.8-1.2 38.1-1.1-4.2-12.2-23.9-28.8-38.4-32.8M417.7 427.7c9.7 1.2 27.7-4.9 30.1 3.5-12.8-5.3-17.3 3.2-30.5-2.7l-2.5 5.7c7.9 2.5 17.8 5.3 27.1 3.9 8-1.2 17.6-5.8 21.7-10.2-18.8-4.5-23.3-12.3-45.6-7.9z" class="st7"/><path d="M345.4 432.1c4.5-7.8 16.3-2 26.6-3-.9 2.1-2.4 2.8-5.6 3-8.1.4-6.2-3-21 0m-13.8-2.8c11.4 13.7 32.5 12 47.9 4.6-1.7-3.2-1.7-5.3-2.4-8.1l-.6-1.7c-17.9-11-29.1 1.5-44.9 5.2M368.2 376.3c-10.2 3.5-25.6 18.6-29.3 28.4 8.6.3 18.3-1.2 26 1.9 9.5 3.7 10.6 9.9 14 12.7 1.3-2.8.9-2.4-1-4.4-12.1-12.3-10.1-21.5-9.7-38.6" class="st7"/><path d="M345.2 111c1.9 16.1 24.5 15.7 21.7-7.1-1.9-16.5-24.5-15.4-21.7 7.1M213.9 111c1.9 16.3 24.4 15.4 21.9-7-1.9-16.7-24.6-15.4-21.9 7" class="st5"/><path d="M593.6 93.4h11.8l.1 35.1 8.2.1.1-35.1 11.7-.4v-6.8l-31.9-.1v2.9zM172.8 128.7h28.4v-7.1l-20.3-.4V86.5h-5.3l-2.8.1zM408.9 412.5c1.9-5.5 2.1-7.9 3-14.1.7-4.8 2.3-9.7 6.6-9.9-6 7.1-2.5 20.6-9.6 24m-1.2 2.4c8.4-1.4 4.1 2.5 10.3-4 11.4-12.2 7.1-33.5 2.8-37.7-3.9 10.2-19.8 21.2-13.1 41.7M391.2 411.8c-.6-1.4-1.1-4.8-1.9-6.9-2.5-6.7-8.1-14-3.2-18.5 1.7 15.9 9.3 18.9 5.1 25.4m6.9 7.7c-.1-10.2.1-6-3.2-13.8-6.8-16.1 3.1-17.4-5.5-26.4-2.4-2.6-5.5-6-9.1-7.3-.1 9.4-1.2 21.7 2 30 2.8 6.7 10.5 14.9 15.8 17.5M432.3 416.3c7.1 1.4 12.4 4.6 18.1 1.3 4.4-2.5 9.8-6.8 11.6-10.2-17.5-1.2-29.3-7.5-43.1 5.6-2.7 2.6-2.7 2-2.7 4.1 3.2 2.2 8.3-1.6 9.8-2.2.4-.1 1.7-.4 2.2-.4 7-1.3 13.5-5.6 18.9-4.2 1.9.4 2.4.9 2.7 2.4-5.3-1.3-13.3 1.7-17.5 3.6M393.8 380.9c1.8-5.6 1.2-9.5 2-15 3 3.3 11.4 8.4 15 18.3l.4-.4.8-.8.4-.4c1-1.2.3-.3 1.2-1.7.6-1 1.4-2.1 1.9-3 1.4-2.1 3.2-4.2 3.7-6.8-5.3-2.7-7 0-11.7-4.5-2.9-2.8-4.5-6.1-8.1-7.6-7 7-9 8.7-16.6 11.6 1.8 1.7 4.1 3.3 5.9 4.9 2.3 2.1 2.8 3.4 5.1 5.4" class="st7"/><path d="M402.6 410.9c-.2-12.4-8.2-19.4-1-25.4-1.3 10.1 2.5 13 2.5 17.2 2.4-20.7 13-10.9-5.8-32.2l-1 3.2c-2.7 16.5-5.8 24.6 3.8 38.4 1.6 2.3 1.3 2.7 3.5 3.7 1-1.9.1-4-.3-6.4-1.2 1.9.1 1.9-1.7 1.5M338.2 406.8c2.5 4.9 7.8 14.3 13.9 12.6 2.7-.7 4.6-1.2 7.6-1.7-4.5-2.8-5.5-4-12.3-4.2 4.8-4.7 10.2.1 14.5 2.5l15.1 5.6c-7.9-18.7-25.6-13.9-38.8-14.8" class="st7"/><path d="m441.6 628 1.7 10-9.1 1.6-1.7-9.4-4.6.4 4.8 24.8 4.5-.6-1.9-10.7 8.8-2.1 2.1 10.8 3.7-.6c1.1-3.1-.4-6.4-1.5-12.4-.8-4.2-1.4-8.1-2.4-12.4z" class="st6"/><path d="M376.3 646.6c-.1-2.6 1.9-6.6 3.2-8.7l2.4 9.1zm-9.4 9.3 5 .4 2-5.3 9.2.4 1.8 6 4.8.3-7.3-25.9-5-.3zM274.9 614.3c1.2-1.6 1.9-1.7 3.2-3.1 2.3-2.4.3-1.4 3.4-2.8l-1.6 9zm-12.2 5.3 4.5 1.9 4.2-3.9 7.8 4.3-.7 6.3 3.6 1.8 1.1-2.7c.2-.7.4-2.2.5-3l3.1-19.9c-1.2-1.7-2.2-2.3-4.8-2.9zM420.8 631.2c.8 10.4 4.3 21.6-2.7 21.7-8.4.1-3.5-15.9-7.1-20.7l-3.9.4c.8 9.7-.4 25.7 11.6 24.6 6.3-.5 8.5-3 8.3-9.6-.1-4.5-.9-12.5-1.8-16.8zM326.5 621.4c-1.4-1.3-2-1.4-4-2-2.6 5.8-4.6 13.9-7.7 18.3-13.5 2.1-3-14.8-1.1-21.2l-3.9-2c-1.9 3.7-4.2 10.2-5.6 14.3-2.4 7.1-1.2 10.7 4.9 13 10.4 3.9 13.5-8.1 17.4-20.4M484.4 622.7c1 .7.6.3 1.4 1.1.1.1.6.6.7.8l3.6 5.1-5.6 1.9zm-4.1-5.7-.1 26.7 4.3-1.3.2-6.3 8.4-3c1.6 1.4 2.4 2.8 4.3 4.4 1.8-.5 2.9-.6 4.2-2.2-2.4-1.8-6.3-7.3-8.4-9.8-2.2-2.4-6.4-8.5-9.3-9.9zM535.2 590.9c2.2 4.8 8.9 13.5 9 18.7-1.8 1.9-2.3 2.6-5.5 2.7-4.5-2.2-8-11.5-11.4-16.4l-3.9 1.9c1.7 4 5.5 10.1 7.6 13.5 3 4.6 5.8 8.3 13 4.2 11.4-6.3-1.6-19.3-4.7-26.7zM357.3 640.3c-.1-2.4.3-5.1 1.2-7 3.7.3 7.3.5 7.1 4.3-.2 4.4-4.5 3.2-8.3 2.7m-6.9 12.7 3.9.9 1.4-4.2c.3-1.7.4-3.5.6-5 7.8.9 14.8 1.4 14.3-8.2-.5-7.2-9.2-7.3-16.4-8.1zM262.8 595.4c3.7 1.7 6.5 3 5.1 7.8-3.9 1.7-5 0-8.9-1.7zm-14.5 15.2c1.6 1.7 1.7 1.6 4.2 2.4.6-1.9 3.1-6.3 4.8-7.7.8.3 12.7 9 16-2.7 1.7-6.4-5.4-10.2-11.7-13.2l-6.7 10.4c-2.4 3.7-4.8 7.4-6.6 10.8M463.2 627.8c2.2-2 8.4-2.9 8.6 1.4.2 3.7-3.7 4.3-7.1 5zm-5.6-2.8 6.8 23.9 4.3-1-2.5-9.5c6.6-1.2 13.8-4.5 9.6-12.8-3.2-6.2-12.8-3.9-18.2-.6" class="st8"/><path d="M382.9 415.4c.1-.2.1-.4.1-.6 0-.1.1-.4.1-.6.4-3.8.4 2.4.1-1.2-.1-2.3-3.8-7.9-5-9.9-2.2-3.7-5.3-7.6-2.4-12.7 1.5 3 .6 5.3 3.2 8.9-.8-7.2.9-20.3-8.7-22.2-.4 8.1-1.5 16.6 1.2 24.1 1.9 5.2 8 14.5 11.4 14.2" class="st7"/><path d="M305.7 121.2c5.9 1.2 17.1 1.9 17.1-5.3 0-7-11.3-6.8-17.1-5.4zM446.4 121.6c6.3 0 17.1 1.9 17.1-5.6s-10.8-5.8-17.1-5.8z" class="st5"/><path d="m327.5 625.5 6.3 2.1-6 20.2 4.3 1.1 6.2-19.7 6.8 1.6.9-3.6c-2.7-2.1-13.2-4.8-17.3-5.6z" class="st8"/><path d="m387.7 636.4 6.7.2.6 20.7 4.6.3-.3-21.1 6.8-.1-.1-4.3-18 .3z" class="st6"/><path d="m490.6 613.7 1.2 3.5 6.3-2.4 8.6 18.9 4.2-1.6-8.2-19c2.4-1.9 4.2-1.6 5.9-3.7l-1.3-3c-2.4.3-15 5.8-16.7 7.3M290.4 610c1.4 1.1 1.4.9 2.7 1.7l3 2-8.5 18.3 4.1 2.3 8.7-18.8 6.5 2.5 1.4-3.6-16.5-8z" class="st8"/><path d="M527.5 104.2c9.1 0 17.4 2.4 16-8.3-4.8-3.6-8.9-2.5-15.8-2.5z" class="st5"/><path d="M515.7 601.3c1.7 5.9 9.5 14.9 8.4 20.3-4 1.1-3.2.1-5.8-2.1l-3.1 2.6c5.5 9.1 14.5 3.2 13.8-3.5-.3-2.9-7.8-16.8-9.4-18.7z" class="st8"/><path d="M305.7 102.8c21 4 21.5-13.7 0-9.2zM446.3 100.4l.1 2.7c5.2 0 13.8 1.2 15.3-3.2 2.6-7.6-6.8-6.6-11.7-6.6h-3.7z" class="st5"/><path d="M331.6 427c2.7-.6 13.1-4.2 15.2-6.5-2.4-1.4-3.9-3-5.6-5-1.8-2-2.7-4.3-4.5-6-2.7 3.4-4.9 12.6-5.1 17.5" class="st7"/><path d="M489.3 111.9h10.6l-5-14.9c-2.4 2.6-4.6 10.8-5.6 14.9M570.5 111.8l10.7.1-3.7-11.3c-.8-2.2-.7-2.4-1.9-4z" class="st5"/><path d="M345.4 432.1c14.8-3 13 .4 21-.1 3.2-.1 4.7-.9 5.6-3-10.3 1.1-22.2-4.7-26.6 3.1M408.9 412.5c7.1-3.4 3.6-16.8 9.6-24-4.3.2-5.9 5.1-6.6 9.9-.9 6.2-1.1 8.5-3 14.1" class="st9"/><path d="M391.2 411.8c4.2-6.6-3.4-9.6-5.1-25.4-4.9 4.5.7 11.8 3.2 18.5.8 2.2 1.2 5.6 1.9 6.9" style="fill-rule:evenodd;clip-rule:evenodd;fill:#241e1c"/><path d="M397.4 440.5c1.4-3.5 6.1-8.4 2.7-10-1.9-.9-.8 0-1.3.1l-1.4.4h-.4c-1.3-.1-5.4-2.1-3.5 3.7.6 1.3 3.1 4.8 3.9 5.8" class="st6"/><path d="m463.2 627.8 1.6 6.4c3.3-.6 7.3-1.2 7.1-5-.3-4.2-6.4-3.4-8.7-1.4M357.3 640.3c3.7.5 8.1 1.7 8.3-2.7.3-3.8-3.4-4-7.1-4.3-.9 1.9-1.3 4.5-1.2 7M259.1 601.5c3.8 1.7 5 3.4 8.9 1.7 1.4-4.9-1.4-6.1-5.1-7.8z" class="st7"/><path d="m378.3 380.4-.2-8.3c-2.2.1-4.7 1-6.4 2.5zM376.3 646.6l5.6.4-2.4-9.1c-1.3 2.1-3.2 6.1-3.2 8.7M274.9 614.3l5 3.1 1.6-9c-3.1 1.4-1.1.4-3.4 2.8-1.3 1.4-2 1.5-3.2 3.1M484.6 631.6l5.6-1.9-3.6-5.1c-.1-.1-.6-.6-.7-.8-.9-.8-.4-.4-1.4-1.1z" class="st11"/><path d="M345.7 476.9c0 .1-.5 3.1 3.2-1.9 3.1-4.2 1.9-2.4 1.1-3.1-.4-.1.6-1.3-1.5.5l-3 3.8c0 .1.1.4.1.4s0 .2.1.3" style="fill-rule:evenodd;clip-rule:evenodd;fill:#fafafa"/><path d="M404 472.4c-2.4-2-.5-1-1.6-.4.1 0 2 3 2.6 3.7.8 1 .9 1.2 1.9 2.3l2 1.7c-.3-2.6-2.9-5.5-4.9-7.3" style="fill-rule:evenodd;clip-rule:evenodd;fill:#f2f2f2"/><path d="m384.6 414.8 3.5-.6-3.4-3.5z" style="fill-rule:evenodd;clip-rule:evenodd;fill:#f6f5f5"/></g></g></svg>